<?xml version="1.0" encoding="utf-8"?>
<svg viewBox="89.677 214.228 95.527 94.658" xmlns="http://www.w3.org/2000/svg">
  <defs>
    <style>.cls-1{fill:#878787;}.cls-2{fill:#575756;}.cls-3{fill:#ededed;}.cls-4{fill:#3c3c3b;}.cls-10,.cls-5{fill:#706f6f;}.cls-6{fill:#c6c6c6;}.cls-7{fill:#9d9d9c;}.cls-8{fill:#dadada;}.cls-9{fill:#193b2c;}.cls-10{stroke:#878787;stroke-miterlimit:10;stroke-width:4px;}.cls-11{fill:#fff;}</style>
  </defs>
  <circle class="cls-1" cx="121.44" cy="254.26" r="4.34"/>
  <circle class="cls-1" cx="131.38" cy="250.56" r="2.05"/>
  <circle class="cls-2" cx="128.97" cy="260.59" r="2"/>
  <circle class="cls-3" cx="123.61" cy="240.82" r="2.17"/>
  <circle class="cls-4" cx="125.29" cy="247.13" r="1.68"/>
  <circle class="cls-4" cx="112.2" cy="248.28" r="2.83"/>
  <circle class="cls-5" cx="114.19" cy="260.59" r="2"/>
  <circle class="cls-6" cx="122.75" cy="265.17" r="2.58"/>
  <circle class="cls-7" cx="134.81" cy="243.29" r="3.84"/>
  <circle class="cls-8" cx="136.04" cy="256.87" r="2.61"/>
  <circle class="cls-2" cx="134.72" cy="266.46" r="1.29"/>
  <path class="cls-9" d="M171.35,329.05a30.32,30.32,0,0,1-3.55-.21,31,31,0,1,1,34.35-27.3h0A31.07,31.07,0,0,1,171.35,329.05Zm0-55.07a24,24,0,1,0,23.89,26.76h0a24.06,24.06,0,0,0-21.15-26.6A23.13,23.13,0,0,0,171.31,274Z" transform="matrix(1, 0, 0, 1, -45.619998931884766, -45.97999954223633)"/>
  <rect class="cls-9" x="190.09" y="318.59" width="8.01" height="7.35" transform="matrix(0.7071067811865476, -0.7071067811865475, 0.7071067811865475, 0.7071067811865476, -216.63999938964844, 185.66000366210938)"/>
  <path class="cls-9" d="M212.19,352.87l-.47,0a5.77,5.77,0,0,1-4.23-2.39l-11.88-16.54a6.63,6.63,0,0,1,.7-8.58l.87-.87a6.64,6.64,0,0,1,8.58-.7l16.53,11.89a5.77,5.77,0,0,1,.71,8.78l-6.72,6.73A5.73,5.73,0,0,1,212.19,352.87Zm.18-8.05,4.29-4.28L201.94,330l-.14.15Z" transform="matrix(1, 0, 0, 1, -45.619998931884766, -45.97999954223633)"/>
  <path class="cls-11" d="M201.88,323.52a5.65,5.65,0,0,1,3.29,1.06l16.53,11.89a4.78,4.78,0,0,1,.59,7.27l-6.72,6.73a4.78,4.78,0,0,1-3.38,1.4l-.39,0a4.73,4.73,0,0,1-3.49-2l-11.89-16.53a5.64,5.64,0,0,1,.59-7.29l.88-.87a5.63,5.63,0,0,1,4-1.66m10.37,22.84,5.95-5.95-16.09-11.56a.4.4,0,0,0-.23-.08.39.39,0,0,0-.28.12l-.87.87a.38.38,0,0,0,0,.51l11.56,16.09m-10.37-24.84h0a7.55,7.55,0,0,0-5.4,2.24l-.88.88a7.6,7.6,0,0,0-.8,9.86L206.68,351a6.75,6.75,0,0,0,5,2.8,5.07,5.07,0,0,0,.55,0,6.73,6.73,0,0,0,4.79-2l6.73-6.73a6.78,6.78,0,0,0-.84-10.3L206.34,323a7.63,7.63,0,0,0-4.46-1.44Zm10.62,21.76L205.8,334l9.32,6.7-2.62,2.62Z" transform="matrix(1, 0, 0, 1, -45.619998931884766, -45.97999954223633)"/>
</svg>