<?xml version="1.0" encoding="utf-8"?>
<svg viewBox="0 212.235 199.154 95.655" xmlns="http://www.w3.org/2000/svg">
  <defs>
    <style>.cls-1{fill:#878787;}.cls-2{fill:#575756;}.cls-3{fill:#ededed;}.cls-4{fill:#3c3c3b;}.cls-10,.cls-5{fill:#706f6f;}.cls-6{fill:#c6c6c6;}.cls-7{fill:#9d9d9c;}.cls-8{fill:#dadada;}.cls-9{fill:#193b2c;}.cls-10{stroke:#878787;stroke-miterlimit:10;stroke-width:4px;}.cls-11{fill:#fff;}</style>
  </defs>
  <circle class="cls-1" cx="121.44" cy="254.26" r="4.34"/>
  <circle class="cls-1" cx="131.38" cy="250.56" r="2.05"/>
  <circle class="cls-2" cx="128.97" cy="260.59" r="2"/>
  <circle class="cls-3" cx="123.61" cy="240.82" r="2.17"/>
  <circle class="cls-4" cx="125.29" cy="247.13" r="1.68"/>
  <circle class="cls-4" cx="112.2" cy="248.28" r="2.83"/>
  <circle class="cls-5" cx="114.19" cy="260.59" r="2"/>
  <circle class="cls-6" cx="122.75" cy="265.17" r="2.58"/>
  <circle class="cls-7" cx="134.81" cy="243.29" r="3.84"/>
  <circle class="cls-8" cx="136.04" cy="256.87" r="2.61"/>
  <circle class="cls-2" cx="134.72" cy="266.46" r="1.29"/>
  <path class="cls-9" d="M217.06,275.18h6.12L242,326.3h-7.73l-14.17-41.24L206,326.3h-7.73ZM206.9,308.26h26.9v6.82H206.9Z" transform="matrix(1, 0, 0, 1, -45.619998931884766, -45.97999954223633)"/>
  <path class="cls-9" d="M113.09,314.59a12.31,12.31,0,0,1-5.15-5.43,19.2,19.2,0,0,1-1.77-8.6v-5.94a18.74,18.74,0,0,1,1.77-8.49,12.24,12.24,0,0,1,5.15-5.38,18.77,18.77,0,0,1,16.25,0,12.24,12.24,0,0,1,5.15,5.38,18.74,18.74,0,0,1,1.77,8.49v6.05a18.85,18.85,0,0,1-1.77,8.52,12.34,12.34,0,0,1-5.15,5.4,18.68,18.68,0,0,1-16.25,0ZM127,307.28a9.69,9.69,0,0,0,2.06-6.61v-6.05c0-2.84-.68-5-2.06-6.57a8.42,8.42,0,0,0-11.63,0,9.56,9.56,0,0,0-2.06,6.57v6.05a9.74,9.74,0,0,0,2.06,6.61,8.37,8.37,0,0,0,11.63,0Z" transform="matrix(1, 0, 0, 1, -45.619998931884766, -45.97999954223633)"/>
  <path class="cls-9" d="M171.35,329.05a30.32,30.32,0,0,1-3.55-.21,31,31,0,1,1,34.35-27.3h0A31.07,31.07,0,0,1,171.35,329.05Zm0-55.07a24,24,0,1,0,23.89,26.76h0a24.06,24.06,0,0,0-21.15-26.6A23.13,23.13,0,0,0,171.31,274Z" transform="matrix(1, 0, 0, 1, -45.619998931884766, -45.97999954223633)"/>
  <path class="cls-5" d="M50.66,333.79h1.51L57,346.36H54.42l-3-8.58-3,8.58H45.85Zm-2.5,8.28h6.62v2.28H48.16Z" transform="matrix(1, 0, 0, 1, -45.619998931884766, -45.97999954223633)"/>
  <path class="cls-5" d="M58.23,333.79H60.6v2.37H58.23Zm0,3.6H60.6v9H58.23Z" transform="matrix(1, 0, 0, 1, -45.619998931884766, -45.97999954223633)"/>
  <path class="cls-5" d="M62.8,337.39h2.55v9H62.8Zm4.63,2.24a1.72,1.72,0,0,0-.58-.09,1.36,1.36,0,0,0-1.11.46,2,2,0,0,0-.39,1.29L65.16,339a3.26,3.26,0,0,1,1-1.25,2.15,2.15,0,0,1,1.3-.44,3,3,0,0,1,1,.17,2.34,2.34,0,0,1,.79.53l-1.39,1.93A.91.91,0,0,0,67.43,339.63Z" transform="matrix(1, 0, 0, 1, -45.619998931884766, -45.97999954223633)"/>
  <path class="cls-5" d="M77.22,345.92a4,4,0,0,1-1.62-1.63,5,5,0,0,1-.57-2.43v-3.57a5,5,0,0,1,.57-2.43,4,4,0,0,1,1.62-1.63,5.36,5.36,0,0,1,4.81,0,4,4,0,0,1,1.62,1.63,5,5,0,0,1,.57,2.43v3.57a5,5,0,0,1-.57,2.43A4,4,0,0,1,82,345.92a5.36,5.36,0,0,1-4.81,0Zm3.53-2.07a1.92,1.92,0,0,0,.75-.77,2.54,2.54,0,0,0,.26-1.16v-3.69a2.5,2.5,0,0,0-.26-1.15,1.88,1.88,0,0,0-.75-.78,2.48,2.48,0,0,0-2.25,0,1.88,1.88,0,0,0-.75.78,2.5,2.5,0,0,0-.26,1.15v3.69a2.54,2.54,0,0,0,.26,1.16,1.92,1.92,0,0,0,.75.77,2.48,2.48,0,0,0,2.25,0Zm-1.5-1,1.27-1.6L85.38,345l-1.27,1.61Z" transform="matrix(1, 0, 0, 1, -45.619998931884766, -45.97999954223633)"/>
  <path class="cls-5" d="M89,342.84a1.36,1.36,0,0,0,.37,1,1.42,1.42,0,0,0,1,.36,1.35,1.35,0,0,0,1-.37,1.42,1.42,0,0,0,.36-1l.12,2a2.77,2.77,0,0,1-.84,1.23,2.06,2.06,0,0,1-1.42.5,2.76,2.76,0,0,1-2.23-.93,4,4,0,0,1-.79-2.63v-5.54H89Zm2.79-5.45h2.36v9H91.83Z" transform="matrix(1, 0, 0, 1, -45.619998931884766, -45.97999954223633)"/>
  <path class="cls-5" d="M96.81,345.81a2.77,2.77,0,0,1-.72-2.09,2.46,2.46,0,0,1,.8-2,3.69,3.69,0,0,1,2.4-.67h2.25l.12,1.81H99.3a1.25,1.25,0,0,0-.8.21.78.78,0,0,0-.27.65.72.72,0,0,0,.33.65,2,2,0,0,0,1,.21,3.6,3.6,0,0,0,1.41-.21.71.71,0,0,0,.46-.68l.18,1.31a1.22,1.22,0,0,1-.44.82,2.57,2.57,0,0,1-1,.5,4.24,4.24,0,0,1-1.25.17A3,3,0,0,1,96.81,345.81Zm4.65-5.14a1.2,1.2,0,0,0-.41-1,1.86,1.86,0,0,0-1.18-.33,3.06,3.06,0,0,0-1,.16A3,3,0,0,0,98,340l-1.47-1.45A3.66,3.66,0,0,1,98,337.6a5.33,5.33,0,0,1,2-.34,4.68,4.68,0,0,1,2,.39,2.77,2.77,0,0,1,1.27,1.14,3.54,3.54,0,0,1,.44,1.81v5.76h-2.16Z" transform="matrix(1, 0, 0, 1, -45.619998931884766, -45.97999954223633)"/>
  <path class="cls-5" d="M108.32,343.4a.62.62,0,0,0,.19.5.72.72,0,0,0,.53.18h.4v2.28h-1.21a2.17,2.17,0,0,1-1.68-.62A2.41,2.41,0,0,1,106,344v-10.2h2.37Z" transform="matrix(1, 0, 0, 1, -45.619998931884766, -45.97999954223633)"/>
  <path class="cls-5" d="M111,333.79h2.37v2.37H111Zm0,3.6h2.37v9H111Z" transform="matrix(1, 0, 0, 1, -45.619998931884766, -45.97999954223633)"/>
  <path class="cls-5" d="M114.83,337.39h4.4v2h-4.4Zm1.48,8.42a2.55,2.55,0,0,1-.55-1.78v-9.26h2.37v8.67a.84.84,0,0,0,.13.51.45.45,0,0,0,.38.17h.59v2.29H118A2.22,2.22,0,0,1,116.31,345.81Z" transform="matrix(1, 0, 0, 1, -45.619998931884766, -45.97999954223633)"/>
  <path class="cls-5" d="M120.35,337.39h2.23l3,7.8-1.5,1.91Zm8.29,0-4,11.08a3,3,0,0,1-.56,1,1.84,1.84,0,0,1-.82.51,3.86,3.86,0,0,1-1.21.16h-.53v-2.3h.53a1.15,1.15,0,0,0,.64-.17,1,1,0,0,0,.38-.55l3.33-9.7Z" transform="matrix(1, 0, 0, 1, -45.619998931884766, -45.97999954223633)"/>
  <path class="cls-5" d="M142.7,333.79h3.12v12.57h-2.15V336.6l.08.55-2.4,7.81h-2.1l-2.4-7.63.09-.73v9.76h-2.16V333.79h3.13l2.39,8.47Z" transform="matrix(1, 0, 0, 1, -45.619998931884766, -45.97999954223633)"/>
  <path class="cls-5" d="M149.93,346a3,3,0,0,1-1.32-1.33,4.61,4.61,0,0,1-.46-2.12v-1.46a4.51,4.51,0,0,1,.46-2.09,3,3,0,0,1,1.32-1.32,5.13,5.13,0,0,1,4.2,0,3.06,3.06,0,0,1,1.32,1.32,4.51,4.51,0,0,1,.45,2.09v1.49a4.52,4.52,0,0,1-.45,2.1,3.06,3.06,0,0,1-1.32,1.32,5,5,0,0,1-4.2,0Zm3.21-2.24a1.66,1.66,0,0,0,.39-1.18v-1.49a1.61,1.61,0,0,0-.39-1.16,1.48,1.48,0,0,0-1.12-.42,1.43,1.43,0,0,0-1.1.42,1.57,1.57,0,0,0-.4,1.16v1.49a1.66,1.66,0,0,0,.39,1.18,1.44,1.44,0,0,0,1.11.42A1.48,1.48,0,0,0,153.14,343.79Z" transform="matrix(1, 0, 0, 1, -45.619998931884766, -45.97999954223633)"/>
  <path class="cls-5" d="M158.06,337.39h2.37v9h-2.37Zm5.19,3.53a1.38,1.38,0,0,0-.37-1,1.49,1.49,0,0,0-1.07-.36,1.35,1.35,0,0,0-1,.37,1.4,1.4,0,0,0-.36,1l-.18-2a3.35,3.35,0,0,1,1-1.27,2.3,2.3,0,0,1,1.42-.42,2.71,2.71,0,0,1,2.2.95,4.24,4.24,0,0,1,.77,2.71v5.44h-2.37Z" transform="matrix(1, 0, 0, 1, -45.619998931884766, -45.97999954223633)"/>
  <path class="cls-5" d="M167.83,333.79h2.37v2.37h-2.37Zm0,3.6h2.37v9h-2.37Z" transform="matrix(1, 0, 0, 1, -45.619998931884766, -45.97999954223633)"/>
  <path class="cls-5" d="M171.71,337.39h4.39v2h-4.39Zm1.48,8.42a2.55,2.55,0,0,1-.55-1.78v-9.26H175v8.67a.84.84,0,0,0,.13.51.45.45,0,0,0,.38.17h.58v2.29h-1.19A2.22,2.22,0,0,1,173.19,345.81Z" transform="matrix(1, 0, 0, 1, -45.619998931884766, -45.97999954223633)"/>
  <path class="cls-5" d="M179.7,346a3,3,0,0,1-1.32-1.33,4.48,4.48,0,0,1-.46-2.12v-1.46a4.39,4.39,0,0,1,.46-2.09,3,3,0,0,1,1.32-1.32,5.1,5.1,0,0,1,4.19,0,3.08,3.08,0,0,1,1.33,1.32,4.51,4.51,0,0,1,.45,2.09v1.49a4.52,4.52,0,0,1-.45,2.1,3.08,3.08,0,0,1-1.33,1.32,5,5,0,0,1-4.19,0Zm3.2-2.24a1.62,1.62,0,0,0,.4-1.18v-1.49a1.57,1.57,0,0,0-.4-1.16,1.44,1.44,0,0,0-1.11-.42,1.42,1.42,0,0,0-1.1.42,1.57,1.57,0,0,0-.4,1.16v1.49a1.66,1.66,0,0,0,.39,1.18,1.68,1.68,0,0,0,2.22,0Z" transform="matrix(1, 0, 0, 1, -45.619998931884766, -45.97999954223633)"/>
  <path class="cls-5" d="M187.83,337.39h2.54v9h-2.54Zm4.63,2.24a1.72,1.72,0,0,0-.58-.09,1.36,1.36,0,0,0-1.11.46,2,2,0,0,0-.4,1.29l-.18-2.34a3.26,3.26,0,0,1,1-1.25,2.15,2.15,0,0,1,1.3-.44,3,3,0,0,1,1,.17,2.34,2.34,0,0,1,.79.53l-1.39,1.93A.91.91,0,0,0,192.46,339.63Z" transform="matrix(1, 0, 0, 1, -45.619998931884766, -45.97999954223633)"/>
  <rect class="cls-9" x="190.09" y="318.59" width="8.01" height="7.35" transform="matrix(0.7071067811865476, -0.7071067811865475, 0.7071067811865475, 0.7071067811865476, -216.63999938964844, 185.66000366210938)"/>
  <path class="cls-9" d="M212.19,352.87l-.47,0a5.77,5.77,0,0,1-4.23-2.39l-11.88-16.54a6.63,6.63,0,0,1,.7-8.58l.87-.87a6.64,6.64,0,0,1,8.58-.7l16.53,11.89a5.77,5.77,0,0,1,.71,8.78l-6.72,6.73A5.73,5.73,0,0,1,212.19,352.87Zm.18-8.05,4.29-4.28L201.94,330l-.14.15Z" transform="matrix(1, 0, 0, 1, -45.619998931884766, -45.97999954223633)"/>
  <path class="cls-11" d="M201.88,323.52a5.65,5.65,0,0,1,3.29,1.06l16.53,11.89a4.78,4.78,0,0,1,.59,7.27l-6.72,6.73a4.78,4.78,0,0,1-3.38,1.4l-.39,0a4.73,4.73,0,0,1-3.49-2l-11.89-16.53a5.64,5.64,0,0,1,.59-7.29l.88-.87a5.63,5.63,0,0,1,4-1.66m10.37,22.84,5.95-5.95-16.09-11.56a.4.4,0,0,0-.23-.08.39.39,0,0,0-.28.12l-.87.87a.38.38,0,0,0,0,.51l11.56,16.09m-10.37-24.84h0a7.55,7.55,0,0,0-5.4,2.24l-.88.88a7.6,7.6,0,0,0-.8,9.86L206.68,351a6.75,6.75,0,0,0,5,2.8,5.07,5.07,0,0,0,.55,0,6.73,6.73,0,0,0,4.79-2l6.73-6.73a6.78,6.78,0,0,0-.84-10.3L206.34,323a7.63,7.63,0,0,0-4.46-1.44Zm10.62,21.76L205.8,334l9.32,6.7-2.62,2.62Z" transform="matrix(1, 0, 0, 1, -45.619998931884766, -45.97999954223633)"/>
  <path class="cls-9" d="M53.89,326.29c.62,0,12.36-1.42,12.32-18.07l0-13.42a.53.53,0,0,1,1-.15l9.34,31a.53.53,0,0,0,.5.38l2.94.05,2.94-.05a.51.51,0,0,0,.49-.38l9.35-31a.53.53,0,0,1,1,.15l0,13.42c0,16.65,11.78,18,12.32,18.07h35.3a.53.53,0,0,0,.51-.66L140.2,319a.52.52,0,0,0-.5-.4c-2.33,0-23.14-.2-29.48-.2-7,0-8.51-5.07-8.51-8.38,0-1.12-.13-30.93-.15-35.27a.52.52,0,0,0-.53-.52H92.54a.53.53,0,0,0-.5.37L80.41,311.75a.53.53,0,0,1-1,0L67.94,274.58a.53.53,0,0,0-.51-.37H58.94a.53.53,0,0,0-.53.52c0,4.34-.15,34.15-.15,35.27,0,3.31-1.46,8.38-8.51,8.38l-3.91,0-.12,7.9" transform="matrix(1, 0, 0, 1, -45.619998931884766, -45.97999954223633)"/>
</svg>