<?xml version="1.0" standalone="no"?>
<!DOCTYPE svg PUBLIC "-//W3C//DTD SVG 20010904//EN"
 "http://www.w3.org/TR/2001/REC-SVG-20010904/DTD/svg10.dtd">
<svg version="1.0" xmlns="http://www.w3.org/2000/svg"
 width="12099.000000pt" height="3130.000000pt" viewBox="0 0 12099.000000 3130.000000"
 preserveAspectRatio="xMidYMid meet">

<g transform="translate(0.000000,3130.000000) scale(0.100000,-0.100000)"
fill="#1c3c1f" stroke="none">
<path d="M33904 24362 c-94 -33 -166 -100 -208 -194 -14 -29 -812 -2154 -1775
-4723 -1247 -3328 -1753 -4690 -1761 -4740 -22 -136 14 -294 97 -418 63 -95
156 -165 278 -211 22 -8 993 -12 3550 -16 l3520 -5 58 -24 c70 -28 148 -89
200 -157 84 -108 120 -208 502 -1357 414 -1245 485 -1452 608 -1767 248 -635
416 -972 672 -1355 396 -592 766 -989 1210 -1300 700 -490 1689 -832 2725
-942 143 -15 271 -18 945 -18 l780 0 51 27 c58 31 99 74 126 135 17 40 18 81
16 870 l-3 828 -23 45 c-33 63 -76 105 -135 130 -49 21 -62 22 -446 21 -692
-1 -1002 29 -1382 133 -451 124 -927 385 -1205 661 -230 230 -450 571 -636
989 -74 165 -158 380 -172 436 -20 82 -4643 12737 -4674 12793 -33 61 -89 112
-161 146 l-56 26 -1325 2 c-1243 2 -1328 1 -1376 -15z m1526 -3854 c127 -39
231 -116 308 -232 47 -71 76 -155 647 -1866 446 -1339 599 -1808 602 -1854 18
-215 -141 -437 -356 -500 -49 -14 -196 -16 -1372 -16 -1297 0 -1318 0 -1383
20 -133 42 -257 156 -313 289 -24 59 -27 78 -27 176 l0 110 593 1770 c326 974
607 1797 625 1830 36 70 141 180 208 219 142 83 309 102 468 54z"/>
<path d="M63719 24364 c-69 -21 -139 -73 -181 -135 -28 -41 -446 -1147 -1789
-4729 -964 -2571 -1761 -4704 -1770 -4740 -36 -132 -15 -315 48 -433 59 -107
161 -195 280 -240 l58 -22 3545 -5 c3276 -5 3549 -7 3599 -22 131 -41 235
-118 281 -209 13 -24 121 -334 240 -689 292 -865 781 -2180 811 -2180 5 0 9
-5 9 -11 0 -18 208 -534 287 -714 146 -329 271 -559 453 -831 275 -413 552
-747 819 -991 652 -595 1604 -1018 2706 -1203 420 -70 637 -82 1475 -78 608 3
668 4 702 20 58 28 109 78 134 133 l24 50 0 825 c0 786 -1 827 -19 866 -27 59
-84 118 -138 144 -46 21 -55 22 -447 21 -710 -1 -1018 30 -1407 140 -450 127
-925 392 -1197 667 -282 285 -550 751 -778 1351 -24 62 -52 123 -62 135 -10
11 -79 183 -152 381 -73 198 -140 367 -150 375 -10 9 -962 2554 -2224 5950
-1214 3264 -2220 5963 -2237 5996 -34 73 -90 126 -168 163 l-56 26 -1325 2
c-1127 1 -1332 0 -1371 -13z m1495 -3850 c140 -34 288 -148 354 -272 18 -33
300 -862 629 -1843 l597 -1784 -1 -90 c-1 -145 -50 -254 -162 -357 -61 -57
-141 -101 -212 -117 -28 -7 -508 -11 -1355 -11 -1427 0 -1350 -3 -1464 55
-108 55 -204 173 -242 298 -17 57 -20 85 -15 161 5 88 27 155 602 1870 436
1302 605 1795 630 1835 132 217 383 317 639 255z"/>
<path d="M43453 24282 c-98 -34 -166 -100 -198 -193 -13 -36 -15 -623 -15
-4698 0 -2949 -4 -4699 -10 -4774 -20 -235 -70 -419 -175 -632 -151 -310 -381
-574 -705 -808 -92 -67 -118 -92 -144 -137 -29 -52 -31 -60 -30 -160 l0 -105
307 -853 c169 -469 314 -866 322 -882 64 -123 211 -185 356 -150 107 26 400
159 604 274 961 545 1601 1424 1890 2599 75 306 123 599 150 917 8 102 20 224
25 271 6 55 10 971 10 2510 0 1366 4 2417 9 2409 5 -8 732 -1975 1616 -4370
884 -2395 1618 -4381 1632 -4413 32 -72 103 -138 179 -167 55 -20 65 -20 1037
-18 l982 3 52 27 c60 32 115 84 139 131 10 17 748 2019 1640 4447 l1623 4415
1 -2295 c0 -1409 4 -2359 10 -2460 55 -904 266 -1686 628 -2325 70 -124 242
-380 326 -484 254 -316 524 -565 856 -785 187 -124 277 -176 475 -273 544
-267 1190 -428 1850 -463 120 -6 1711 -10 4300 -10 3993 0 4111 1 4151 19 57
26 96 80 102 140 4 42 -29 153 -247 852 -139 442 -259 823 -268 846 -22 59
-71 113 -134 148 l-54 30 -3375 5 c-3638 6 -3433 3 -3783 55 -764 113 -1352
407 -1726 863 -231 281 -367 571 -479 1020 l-27 107 -5 4575 -5 4575 -28 57
c-32 65 -89 121 -156 152 l-46 21 -1395 0 -1395 0 -50 -25 c-59 -29 -124 -91
-147 -140 -9 -19 -863 -2257 -1897 -4974 -1035 -2716 -1885 -4946 -1890 -4955
-8 -14 -11 -13 -19 9 -365 945 -3840 9888 -3853 9916 -27 57 -84 112 -149 143
l-55 26 -1380 2 c-1305 2 -1383 2 -1432 -15z"/>
<path d="M7045 24271 c-22 -10 -52 -31 -67 -47 -61 -65 -58 -16 -58 -1036 0
-887 1 -935 19 -973 23 -49 64 -89 113 -109 33 -14 222 -16 1728 -16 l1690 0
0 -5516 c0 -4318 3 -5526 12 -5558 18 -59 91 -129 150 -144 58 -15 2190 -17
2252 -2 55 12 115 58 140 105 l21 40 5 5535 5 5535 1716 5 1716 5 39 27 c51
36 81 81 94 143 7 34 10 338 8 955 l-3 905 -22 40 c-27 51 -68 90 -115 109
-34 14 -509 16 -4720 16 -4537 0 -4684 -1 -4723 -19z"/>
<path d="M17979 24263 c-61 -31 -113 -93 -129 -152 -7 -26 -9 -2098 -8 -6527
l3 -6489 22 -41 c28 -53 89 -107 144 -128 40 -15 137 -16 1154 -14 l1110 3 41
22 c22 12 57 40 77 62 72 80 67 -127 67 2579 l0 2434 313 -5 c238 -4 329 -9
382 -21 325 -75 592 -255 774 -522 92 -134 2178 -2986 2249 -3075 512 -640
1276 -1118 2138 -1337 330 -84 618 -126 969 -142 332 -15 10062 -13 10106 1
72 24 119 92 119 170 0 43 -481 1602 -522 1692 -25 54 -91 120 -146 145 -34
16 -339 17 -4247 22 -4607 6 -4267 2 -4620 61 -809 135 -1570 536 -2224 1174
-443 432 -700 763 -1146 1478 -164 263 -296 480 -293 482 2 3 69 21 147 41
722 181 1413 586 1961 1150 293 302 470 544 636 869 232 458 378 992 436 1600
19 206 16 757 -5 955 -95 861 -380 1548 -884 2133 -667 772 -1620 1225 -2868
1361 -318 35 -399 38 -1155 43 -748 4 -776 3 -810 -15 -20 -11 -44 -37 -57
-62 l-23 -43 0 -986 c0 -919 1 -988 18 -1020 9 -19 30 -44 45 -55 28 -21 42
-21 630 -27 632 -6 696 -10 951 -59 297 -58 570 -166 786 -313 105 -72 322
-291 397 -402 254 -375 367 -853 333 -1403 -30 -491 -156 -873 -390 -1184
-305 -405 -757 -643 -1397 -734 -102 -15 -244 -18 -1074 -21 -1067 -4 -1023
-7 -1169 65 -106 51 -241 187 -292 292 -76 158 -70 -112 -67 2999 l2 2786 -26
52 c-15 28 -42 63 -60 77 -78 59 -6 56 -1225 56 l-1118 0 -55 -27z"/>
<path d="M78120 18060 l0 -200 425 0 425 0 0 -1325 0 -1325 245 0 245 0 0
1325 0 1325 425 0 425 0 0 200 0 200 -1095 0 -1095 0 0 -200z"/>
<path d="M97970 17885 l0 -295 -170 0 -170 0 0 -210 0 -210 170 0 170 0 0
-577 c0 -318 5 -634 10 -703 23 -308 118 -484 316 -588 138 -71 210 -84 502
-89 l252 -5 0 215 0 215 -187 4 c-179 3 -191 4 -244 29 -63 30 -98 70 -125
144 -18 46 -19 97 -22 703 l-3 652 291 0 290 0 0 210 0 210 -290 0 -290 0 0
295 0 295 -250 0 -250 0 0 -295z"/>
<path d="M81910 17623 c-130 -13 -280 -64 -401 -135 -90 -53 -232 -191 -285
-277 l-39 -65 -3 222 -2 222 -250 0 -250 0 0 -1190 0 -1190 250 0 249 0 3 698
3 697 27 80 c52 154 135 248 283 321 121 60 237 84 413 84 l132 0 0 270 0 270
-47 -2 c-27 0 -64 -3 -83 -5z"/>
<path d="M86508 17619 c-101 -15 -181 -39 -274 -84 -172 -83 -290 -200 -374
-370 l-40 -80 0 253 0 252 -245 0 -245 0 0 -1190 0 -1190 245 0 244 0 3 723
c4 710 4 723 26 802 69 248 229 410 458 461 111 24 294 16 385 -18 96 -36 157
-74 220 -139 65 -67 109 -145 141 -249 22 -75 22 -76 26 -827 l3 -753 250 0
251 0 -5 778 c-4 832 -6 858 -58 1028 -103 334 -348 548 -688 599 -104 16
-232 18 -323 4z"/>
<path d="M97326 17619 c-146 -21 -287 -75 -405 -153 -84 -56 -204 -180 -257
-266 l-39 -64 -3 227 -2 227 -245 0 -245 0 0 -1190 0 -1190 244 0 245 0 3 683
c4 620 6 688 22 747 61 218 192 347 421 416 77 22 114 27 258 31 l167 6 0 268
0 269 -52 -1 c-29 -1 -80 -5 -112 -10z"/>
<path d="M83169 17606 c-476 -85 -787 -429 -865 -958 -24 -166 -15 -463 19
-608 111 -473 404 -770 832 -845 113 -19 310 -19 415 1 287 54 511 220 631
468 l39 80 0 -267 0 -267 245 0 245 0 0 1190 0 1190 -245 0 -245 0 0 -267 -1
-268 -28 61 c-109 235 -325 411 -583 475 -108 26 -349 34 -459 15z m531 -441
c277 -66 485 -312 531 -627 14 -99 6 -277 -16 -368 -23 -89 -95 -234 -148
-299 -157 -188 -396 -281 -648 -250 -178 21 -297 77 -416 196 -158 159 -233
414 -204 695 40 374 253 614 596 668 77 12 222 4 305 -15z"/>
<path d="M88743 17609 c-212 -27 -383 -107 -502 -235 -112 -119 -161 -251
-161 -435 0 -232 73 -376 252 -495 95 -63 214 -104 558 -190 386 -97 489 -145
557 -262 25 -42 28 -57 28 -137 0 -78 -4 -97 -27 -141 -33 -63 -94 -119 -167
-152 -73 -34 -228 -42 -341 -18 -211 45 -361 188 -404 389 l-6 27 -241 0 -240
0 7 -37 c13 -73 56 -199 93 -268 134 -257 398 -422 746 -466 138 -17 396 -7
503 20 257 65 441 220 512 431 46 139 35 368 -25 495 -30 61 -88 132 -152 186
-112 94 -240 144 -583 229 -355 88 -440 120 -528 195 -65 56 -86 105 -87 195
0 201 147 324 390 323 164 -1 281 -46 380 -147 64 -65 106 -141 129 -228 l13
-53 232 -3 231 -2 0 23 c0 42 -41 180 -74 253 -132 285 -386 462 -721 503
-101 12 -279 13 -372 0z"/>
<path d="M91622 17609 c-175 -27 -350 -111 -472 -226 -86 -80 -132 -142 -182
-242 l-37 -76 -1 263 0 262 -250 0 -250 0 0 -1760 0 -1760 250 0 250 0 0 833
1 832 29 -62 c81 -176 218 -314 395 -399 152 -74 220 -87 440 -88 212 -1 291
12 443 76 471 196 717 761 617 1413 -51 330 -213 607 -448 767 -89 61 -212
115 -322 144 -80 21 -130 26 -250 29 -82 2 -178 0 -213 -6z m238 -450 c208
-57 380 -214 455 -413 39 -103 55 -205 55 -345 0 -272 -68 -452 -228 -603
-129 -122 -282 -179 -482 -180 -200 -1 -357 56 -489 179 -168 154 -246 346
-246 603 0 159 21 253 85 386 101 208 280 347 505 390 92 18 248 10 345 -17z"/>
<path d="M94246 17609 c-446 -58 -795 -331 -940 -737 -53 -150 -70 -259 -70
-472 0 -213 17 -323 70 -472 148 -411 489 -679 942 -739 110 -15 392 -6 487
15 512 114 836 469 906 993 15 113 6 413 -16 508 -88 394 -322 681 -668 820
-205 82 -474 114 -711 84z m419 -453 c113 -36 196 -89 276 -175 76 -81 147
-210 174 -316 27 -105 38 -255 26 -367 -14 -139 -33 -206 -88 -318 -84 -172
-234 -295 -423 -346 -102 -28 -293 -26 -390 4 -272 85 -444 294 -491 593 -17
109 -6 335 20 433 71 267 261 454 520 513 92 21 280 11 376 -21z"/>
<path d="M100380 17609 c-270 -35 -538 -172 -697 -356 -74 -85 -157 -220 -194
-316 -147 -381 -124 -866 57 -1196 164 -300 440 -488 802 -547 120 -20 409
-14 517 11 440 99 746 389 834 793 l9 42 -264 0 -263 0 -12 -42 c-22 -84 -79
-175 -152 -244 -153 -145 -384 -205 -615 -159 -191 38 -364 171 -441 336 -45
97 -69 189 -78 294 l-6 75 915 0 c816 0 917 2 922 15 14 37 18 236 7 333 -31
266 -129 480 -296 648 -217 218 -507 327 -865 323 -63 -1 -144 -5 -180 -10z
m393 -410 c271 -75 436 -283 454 -570 l6 -99 -676 0 -677 0 0 33 c0 73 40 224
81 307 137 279 484 419 812 329z"/>
<path d="M102774 17606 c-427 -70 -662 -330 -641 -711 10 -179 71 -308 193
-409 112 -92 263 -148 649 -241 242 -58 330 -87 402 -134 113 -73 155 -143
155 -256 0 -98 -27 -159 -103 -230 -76 -70 -150 -95 -281 -95 -177 0 -319 52
-425 156 -68 66 -118 156 -129 231 l-6 43 -243 0 -243 0 14 -62 c87 -379 326
-605 736 -695 117 -25 458 -26 571 -1 288 65 497 245 552 479 19 82 19 265 0
347 -38 161 -154 297 -330 385 -77 38 -251 91 -501 152 -265 65 -361 100 -442
159 -69 51 -98 94 -112 164 -10 57 2 147 27 195 68 132 239 201 437 176 221
-28 374 -158 432 -368 l17 -61 234 0 c128 0 233 4 233 8 0 5 -9 45 -21 91 -90
357 -327 586 -690 666 -101 22 -378 29 -485 11z"/>
<path d="M88672 13199 c-138 -23 -227 -119 -239 -259 -7 -72 16 -153 58 -203
99 -120 346 -137 482 -33 19 14 47 50 63 78 25 46 29 63 28 133 0 98 -25 157
-91 215 -70 61 -188 88 -301 69z"/>
<path d="M103902 13199 c-138 -23 -227 -119 -239 -259 -7 -72 16 -153 58 -203
61 -74 193 -115 314 -98 118 17 190 63 232 149 37 75 38 182 3 255 -57 120
-207 183 -368 156z"/>
<path d="M100810 11440 l0 -1600 245 0 245 0 2 268 3 267 31 -66 c47 -100 103
-176 187 -255 117 -112 250 -182 421 -221 98 -23 373 -23 473 0 434 99 705
392 810 877 15 69 18 130 18 325 0 215 -2 251 -23 344 -100 447 -358 732 -760
843 -66 18 -106 22 -277 22 -179 1 -209 -1 -283 -22 -260 -71 -448 -225 -559
-458 l-38 -79 -3 678 -2 677 -245 0 -245 0 0 -1600z m1455 346 c149 -47 273
-143 362 -278 93 -142 128 -295 120 -518 -7 -213 -48 -339 -153 -479 -125
-166 -331 -261 -566 -261 -126 0 -216 21 -323 74 -270 133 -419 415 -401 756
9 183 55 322 151 455 64 91 147 160 250 210 122 60 199 76 355 71 99 -3 142
-9 205 -30z"/>
<path d="M82050 11345 l0 -1505 250 0 250 0 2 1113 3 1113 431 -1110 430
-1111 220 -2 219 -3 430 1117 430 1116 3 -1116 2 -1117 250 0 250 0 0 1505 0
1505 -299 0 -299 0 -30 -72 c-17 -40 -233 -572 -482 -1183 -419 -1029 -468
-1149 -470 -1135 0 3 -223 541 -494 1195 l-493 1190 -302 3 -301 2 0 -1505z"/>
<path d="M94270 12846 c0 -2 -252 -677 -560 -1500 -308 -824 -560 -1499 -560
-1502 0 -2 119 -4 265 -4 146 0 265 2 265 4 0 4 207 593 221 629 l11 27 644 0
c354 0 644 -2 644 -4 0 -4 207 -593 221 -628 l11 -28 264 0 c145 0 264 1 264
3 0 1 -252 678 -559 1502 l-559 1500 -286 3 c-157 1 -286 1 -286 -2z m538
-1256 c134 -377 242 -691 242 -697 0 -10 -106 -13 -494 -13 -272 0 -497 3
-499 8 -3 5 419 1207 488 1391 3 8 9 10 14 5 4 -5 116 -317 249 -694z"/>
<path d="M110450 12520 l0 -300 -170 0 -170 0 0 -210 0 -210 170 0 170 0 0
-587 c0 -619 7 -769 39 -896 57 -222 190 -363 406 -430 111 -35 229 -47 448
-47 l187 0 0 214 0 214 -182 4 c-206 5 -252 16 -311 73 -20 19 -46 60 -59 92
l-23 58 -3 653 -3 652 291 0 290 0 0 210 0 210 -287 2 -288 3 -3 298 -2 297
-250 0 -250 0 0 -300z"/>
<path d="M97420 12245 c-260 -54 -463 -208 -568 -433 l-27 -57 -3 233 -2 232
-245 0 -245 0 0 -1190 0 -1190 245 0 245 0 0 674 c0 429 4 703 11 752 49 352
281 564 619 564 266 0 469 -142 545 -382 39 -123 45 -248 45 -950 l0 -658 245
0 244 0 3 728 c3 713 4 728 25 805 67 238 230 396 455 441 291 59 542 -50 657
-285 71 -147 71 -147 71 -964 l0 -725 251 0 250 0 -4 783 c-3 683 -6 794 -21
876 -70 386 -290 642 -631 732 -102 27 -332 37 -441 20 -283 -46 -521 -217
-649 -465 -20 -39 -38 -71 -41 -71 -2 0 -19 33 -38 72 -120 250 -323 406 -595
457 -101 19 -309 20 -401 1z"/>
<path d="M108680 12253 c-187 -31 -368 -119 -486 -237 -56 -57 -130 -164 -167
-243 l-22 -48 -3 248 -2 247 -245 0 -245 0 0 -1190 0 -1190 245 0 245 0 0 658
c0 655 4 761 36 887 54 214 221 383 434 441 87 23 272 24 357 1 192 -51 339
-191 398 -380 39 -121 45 -251 45 -959 l0 -648 246 0 245 0 -4 798 c-4 761 -5
801 -24 892 -50 227 -127 376 -262 503 -119 112 -262 183 -431 213 -69 12
-301 17 -360 7z"/>
<path d="M79161 12234 c-412 -69 -733 -345 -860 -739 -53 -163 -65 -251 -65
-460 0 -213 15 -319 65 -469 131 -393 427 -649 847 -733 133 -27 413 -24 552
6 403 85 698 342 814 709 42 135 68 122 -238 122 l-264 0 -7 -37 c-13 -72 -67
-165 -135 -233 -102 -102 -230 -161 -392 -181 -291 -35 -563 104 -680 347 -42
87 -78 234 -78 322 l0 52 914 0 914 0 8 33 c16 70 7 318 -15 427 -94 448 -418
754 -885 835 -111 19 -378 19 -495 -1z m474 -408 c261 -84 424 -302 429 -576
l1 -85 -674 -3 -674 -2 6 68 c8 97 32 185 78 279 82 171 268 306 473 343 92
17 271 5 361 -24z"/>
<path d="M86621 12234 c-443 -74 -770 -378 -886 -821 -68 -262 -55 -623 31
-865 174 -486 612 -761 1169 -735 461 22 816 238 986 601 34 73 79 211 79 243
0 10 -57 13 -264 13 l-264 0 -6 -34 c-13 -69 -77 -178 -143 -243 -119 -117
-278 -176 -473 -176 -204 0 -342 54 -476 188 -89 89 -128 158 -163 286 -21 73
-42 235 -32 244 2 3 415 5 916 5 l913 0 6 31 c12 59 6 316 -9 401 -79 456
-415 782 -889 863 -111 19 -379 18 -495 -1z m444 -398 c241 -64 409 -249 451
-494 8 -51 14 -111 12 -135 l-3 -42 -674 -3 -674 -2 6 72 c20 251 152 452 360
552 50 24 117 49 147 55 30 6 64 13 75 15 40 10 242 -3 300 -18z"/>
<path d="M90485 12244 c-458 -65 -809 -344 -944 -749 -55 -167 -66 -241 -66
-460 0 -219 11 -293 66 -459 165 -496 629 -790 1204 -763 703 33 1145 505
1145 1222 0 405 -147 747 -413 960 -114 91 -288 176 -442 216 -112 29 -134 32
-320 34 -110 2 -213 1 -230 -1z m375 -440 c30 -8 96 -34 146 -59 75 -36 104
-58 165 -122 84 -88 145 -194 179 -313 28 -95 39 -342 20 -458 -33 -209 -150
-398 -308 -500 -129 -82 -315 -123 -468 -102 -302 40 -506 224 -591 531 -14
51 -18 103 -18 254 0 169 3 199 23 269 82 285 297 478 574 516 76 10 202 3
278 -16z"/>
<path d="M105634 12235 c-473 -83 -801 -403 -905 -885 -31 -141 -34 -476 -6
-610 111 -528 461 -855 982 -919 268 -33 525 8 750 119 217 106 364 250 465
455 43 87 90 224 90 262 0 10 -57 13 -264 13 l-264 0 -6 -34 c-4 -19 -23 -66
-42 -105 -70 -140 -220 -253 -394 -298 -88 -22 -273 -22 -360 1 -153 40 -301
145 -381 269 -58 89 -104 246 -111 377 l-3 55 916 3 917 2 6 31 c11 59 6 306
-9 391 -76 435 -366 745 -800 855 -87 22 -127 26 -300 29 -142 2 -223 -1 -281
-11z m441 -400 c222 -60 386 -224 440 -440 8 -33 16 -98 17 -145 l3 -85 -669
-3 c-369 -1 -673 1 -677 5 -11 11 17 178 40 246 59 171 167 295 322 370 52 26
126 53 164 62 87 18 275 14 360 -10z"/>
<path d="M112805 12235 c-493 -91 -813 -418 -911 -930 -24 -125 -24 -414 -1
-545 103 -567 504 -916 1087 -946 584 -31 1052 273 1185 769 l24 87 -266 -2
-265 -3 -18 -57 c-129 -417 -755 -534 -1085 -203 -39 39 -84 97 -102 130 -43
82 -82 220 -90 321 l-6 84 916 0 917 0 7 28 c15 52 8 323 -10 413 -86 433
-383 739 -816 841 -116 27 -447 34 -566 13z m460 -405 c106 -33 182 -76 248
-139 122 -114 183 -252 194 -433 l6 -98 -676 0 -677 0 0 34 c0 55 26 175 53
248 80 212 269 366 501 408 85 15 271 5 351 -20z"/>
<path d="M88500 11030 l0 -1190 245 0 245 0 0 1190 0 1190 -245 0 -245 0 0
-1190z"/>
<path d="M103730 11030 l0 -1190 245 0 245 0 0 1190 0 1190 -245 0 -245 0 0
-1190z"/>
<path d="M28396 9785 c-22 -8 -57 -31 -77 -52 -35 -35 -71 -125 -479 -1209
-400 -1065 -440 -1176 -440 -1230 0 -35 8 -75 19 -99 23 -51 79 -101 128 -114
57 -16 2132 -15 2185 1 22 6 57 28 79 47 38 34 63 93 506 1206 347 870 467
1184 471 1223 8 96 -38 179 -122 218 l-51 24 -1090 -1 c-908 0 -1097 -2 -1129
-14z"/>
<path d="M58166 9785 c-44 -15 -91 -57 -113 -99 -8 -16 -210 -548 -449 -1184
-382 -1015 -434 -1161 -434 -1210 0 -98 61 -184 149 -211 52 -15 2128 -16
2184 0 44 12 101 59 123 101 8 16 222 548 475 1183 417 1049 459 1160 459
1212 0 100 -60 185 -149 212 -61 18 -2193 15 -2245 -4z"/>
</g>
</svg>
